<svg width="125" height="26" viewBox="0 0 125 26" fill="none" xmlns="http://www.w3.org/2000/svg">
<path d="M8.22989 3.20203C9.13189 4.10203 9.47589 5.42003 9.13189 6.64603C10.2414 5.97874 11.5121 5.62709 12.8069 5.62903H12.8339C13.7755 5.63207 14.7072 5.8211 15.5756 6.18525C16.4439 6.54941 17.2318 7.08152 17.8939 7.75103C18.1508 8.02832 18.4609 8.25107 18.8056 8.40602C19.1504 8.56096 19.5229 8.64494 19.9008 8.65293C20.2787 8.66093 20.6543 8.59279 21.0054 8.45256C21.3564 8.31234 21.6756 8.1029 21.944 7.83672C22.2124 7.57055 22.4245 7.25308 22.5676 6.90322C22.7107 6.55337 22.782 6.17829 22.7771 5.80032C22.7723 5.42235 22.6914 5.04923 22.5393 4.70317C22.3872 4.35712 22.167 4.04521 21.8919 3.78603C20.7087 2.59014 19.3007 1.64 17.7489 0.990254C16.1971 0.340507 14.5322 0.00397907 12.8499 2.79363e-05H12.8009C10.2574 -0.00529864 7.77056 0.751197 5.66089 2.17203H5.73989C6.67389 2.17103 7.56989 2.54203 8.22989 3.20403V3.20203Z" fill="#1773EB"/>
<path d="M19.8417 17.072C19.0997 17.072 18.3847 17.366 17.8587 17.888C16.5175 19.223 14.702 19.972 12.8097 19.971H12.7827C11.4853 19.9694 10.2132 19.6122 9.1047 18.938C9.25018 19.4612 9.27263 20.0109 9.17032 20.5443C9.068 21.0776 8.84368 21.58 8.51491 22.0122C8.18614 22.4444 7.76183 22.7946 7.27518 23.0356C6.78853 23.2765 6.25273 23.4016 5.7097 23.401H5.6167C7.72365 24.8365 10.2132 25.6061 12.7627 25.61H12.8117C14.485 25.6127 16.1425 25.2857 17.6895 24.6477C19.2365 24.0098 20.6426 23.0734 21.8277 21.892C22.224 21.499 22.4945 20.997 22.6051 20.45C22.7156 19.9029 22.6612 19.3353 22.4486 18.8192C22.236 18.3031 21.875 17.8618 21.4112 17.5513C20.9474 17.2407 20.4018 17.075 19.8437 17.075V17.072H19.8417Z" fill="#E44F20"/>
<path d="M3.2158 17.387C3.54179 17.0587 3.9298 16.7985 4.35727 16.6215C4.78474 16.4445 5.24314 16.3543 5.7058 16.356C6.0288 16.356 6.3488 16.399 6.6598 16.486C5.98818 15.3695 5.63449 14.0906 5.63696 12.7876C5.63943 11.4846 5.99796 10.2071 6.6738 9.09305C6.15069 9.23692 5.6014 9.258 5.0688 9.15464C4.5362 9.05127 4.03467 8.82626 3.60335 8.49716C3.17203 8.16805 2.82257 7.74375 2.58223 7.25734C2.34189 6.77094 2.21717 6.23559 2.2178 5.69305V5.59705C0.778564 7.71235 0.00609617 10.2103 3.59333e-05 12.7688C-0.00602431 15.3273 0.754601 17.829 2.1838 19.951V19.877C2.18216 19.4143 2.27255 18.9559 2.44972 18.5284C2.62689 18.1009 2.8873 17.7129 3.2158 17.387Z" fill="#FFDA00"/>
<path d="M5.7397 2.79602C4.9397 2.79602 4.3787 3.12802 3.6987 3.80802C3.0517 4.45302 2.8477 5.02002 2.8457 5.69202C2.8461 6.26431 3.01616 6.82364 3.3344 7.2993C3.65264 7.77495 4.10476 8.14557 4.6336 8.3643C5.16245 8.58303 5.74427 8.64006 6.30552 8.52817C6.86677 8.41628 7.38224 8.14049 7.78678 7.73568C8.19131 7.33087 8.46674 6.8152 8.57824 6.25388C8.68975 5.69255 8.63232 5.11077 8.41322 4.58207C8.19412 4.05338 7.82319 3.60152 7.34732 3.28361C6.87144 2.9657 6.312 2.79602 5.7397 2.79602Z" fill="#1773EB"/>
<path d="M2.80371 19.881C2.80371 20.68 3.13571 21.242 3.81371 21.921C4.46171 22.568 5.02571 22.773 5.69771 22.775C6.46286 22.7726 7.19572 22.4664 7.73508 21.9237C8.27443 21.3809 8.5761 20.6462 8.57371 19.881C8.57132 19.1159 8.26508 18.383 7.72235 17.8437C7.17962 17.3043 6.44486 17.0026 5.67971 17.005C4.91612 17.0074 4.18462 17.3124 3.64552 17.8532C3.10643 18.394 2.80371 19.1264 2.80371 19.89V19.881Z" fill="#E44F20"/>
<path fill-rule="evenodd" clip-rule="evenodd" d="M34.1008 15.314C34.9068 14.704 35.0158 15.045 35.6948 15.727C36.0358 16.067 36.9678 16.659 36.3588 17.16C35.0858 18.199 33.9388 18.666 32.3088 18.666C28.6358 18.648 26.0378 15.906 26.2518 12.268C26.3418 10.638 26.9858 9.09701 28.2588 8.04001C29.4238 7.05401 30.8758 6.62401 32.3988 6.66001C33.1688 6.67801 33.8508 6.78701 34.5668 7.09101C35.0318 7.27001 35.4808 7.48601 35.8738 7.79101C36.6798 8.41901 36.3038 8.77701 35.6768 9.40301C35.5328 9.54701 35.3908 9.69001 35.2638 9.83401C34.9418 10.157 34.7268 10.389 34.2958 10.084C33.4718 9.51101 32.4318 9.20701 31.4468 9.45701C28.2748 10.263 28.4198 15.909 32.3068 15.927C32.9168 15.945 33.5978 15.694 34.0998 15.317L34.1008 15.314ZM122.262 18.736C122.135 18.7364 122.009 18.7116 121.891 18.6631C121.773 18.6146 121.666 18.5433 121.576 18.4534C121.486 18.3634 121.415 18.2565 121.367 18.1389C121.318 18.0213 121.293 17.8952 121.294 17.768L121.348 5.25901C121.348 4.72201 121.779 4.29101 122.316 4.29101H123.355C123.892 4.29101 124.323 4.72201 124.323 5.25901L124.269 17.768C124.269 17.8952 124.244 18.0213 124.196 18.1389C124.147 18.2565 124.076 18.3634 123.986 18.4534C123.896 18.5433 123.789 18.6146 123.672 18.6631C123.554 18.7116 123.428 18.7364 123.301 18.736H122.262ZM116.815 17.285C115.686 18.341 114.611 18.896 113.015 18.896C109.79 18.879 108.25 16.208 108.25 13.216L108.268 8.12801C108.268 7.59101 108.699 7.16001 109.236 7.16001H110.275C110.812 7.16001 111.243 7.59001 111.243 8.12801L111.225 13.217C111.225 14.883 112.121 16.192 113.877 16.192C115.634 16.192 116.708 14.722 116.726 13.074V11.264C116.708 11.192 116.708 11.12 116.708 11.049L116.726 8.16401C116.726 7.62701 117.157 7.19601 117.695 7.19601H118.733C119.271 7.19601 119.702 7.62601 119.702 8.16401L119.665 17.77C119.662 18.0243 119.559 18.2671 119.377 18.4452C119.196 18.6233 118.951 18.7221 118.697 18.72H117.819C117.282 18.72 116.905 18.273 116.869 17.77L116.815 17.285ZM104.451 7.19501H106.458C106.995 7.19501 107.408 7.64201 107.408 8.18101V8.84501C107.408 9.36501 106.979 9.81301 106.439 9.81301H104.433L104.397 17.716C104.397 17.8433 104.372 17.9695 104.324 18.0871C104.275 18.2048 104.204 18.3117 104.114 18.4017C104.024 18.4917 103.917 18.563 103.799 18.6114C103.681 18.6599 103.555 18.6845 103.428 18.684H102.39C102.262 18.6845 102.136 18.6599 102.019 18.6114C101.901 18.563 101.794 18.4917 101.704 18.4017C101.614 18.3117 101.542 18.2048 101.494 18.0871C101.445 17.9695 101.42 17.8433 101.421 17.716L101.457 6.78601C101.457 4.40201 102.819 2.52101 105.257 2.30601C105.329 2.30601 105.383 2.28901 105.453 2.28901C105.596 2.27101 105.74 2.28901 105.882 2.28901H106.815C107.352 2.28901 107.765 2.73601 107.765 3.27501V3.88501C107.765 4.40401 107.334 4.85301 106.796 4.85301H106.045C104.898 4.85301 104.415 5.73101 104.397 6.80601L104.451 7.20001V7.19501ZM97.2468 7.15901H99.4508C99.9698 7.15901 100.401 7.58901 100.401 8.12701V8.79101C100.401 9.31101 99.9698 9.74101 99.4328 9.74101H97.2288L97.2108 14.579C97.2108 15.511 97.6578 16.049 98.5898 16.049H99.0378C99.5568 16.049 99.9878 16.479 99.9878 17.017V17.68C99.9852 17.9343 99.8818 18.1771 99.7003 18.3552C99.5188 18.5333 99.2741 18.6321 99.0198 18.63H98.1778C98.0168 18.63 97.8728 18.63 97.7118 18.612C95.3288 18.452 94.2718 16.91 94.2718 14.581C94.2898 11.445 94.2898 8.32701 94.3078 5.19101C94.3078 4.67201 94.7388 4.24101 95.2758 4.24101H96.2958C96.8158 4.24101 97.2468 4.67201 97.2468 5.21001V7.16301V7.15901ZM65.3698 7.03301H67.5728C68.0928 7.03301 68.5228 7.46301 68.5228 8.00101V8.66501C68.5228 9.18401 68.0928 9.61501 67.5548 9.61501H65.3508V14.453C65.3508 15.385 65.7988 15.923 66.7308 15.923H67.1778C67.6978 15.923 68.1278 16.353 68.1278 16.89V17.554C68.1278 18.074 67.6978 18.504 67.1598 18.504H66.4968C63.8978 18.486 62.3928 17.375 62.3928 14.454C62.4108 11.319 62.4108 8.20101 62.4288 5.06501C62.4288 4.54601 62.8588 4.11501 63.3968 4.11501H64.4168C64.9368 4.11501 65.3668 4.54601 65.3668 5.08401V7.03601L65.3698 7.03301ZM52.4308 8.39501C53.4878 7.40901 54.6338 6.78301 56.1218 6.78301C59.3478 6.80101 61.0138 9.43501 60.9958 12.463L60.9778 17.551C60.9778 18.089 60.5468 18.52 60.0098 18.52H58.9708C58.8435 18.5204 58.7174 18.4956 58.5997 18.447C58.482 18.3985 58.3751 18.3271 58.2851 18.237C58.1951 18.1469 58.1238 18.04 58.0754 17.9222C58.027 17.8045 58.0023 17.6783 58.0028 17.551L58.0208 12.499C58.0208 10.833 57.1248 9.52401 55.3678 9.52401C53.6118 9.52401 52.5378 10.975 52.5188 12.624L52.5008 17.551C52.5008 18.071 52.0708 18.501 51.5328 18.501H50.5128C49.9928 18.501 49.5628 18.071 49.5628 17.533C49.5798 14.47 49.5798 11.387 49.5978 8.32301V7.90901C49.5978 7.38901 50.0288 6.95901 50.5668 6.95901H51.4448C51.9818 6.95901 52.3588 7.40601 52.3948 7.90901L52.4308 8.39201V8.39401V8.39501ZM84.3628 8.52101C85.4188 7.53501 86.5658 6.90901 88.0528 6.90901C91.2798 6.92701 92.9458 9.56201 92.9278 12.589L92.9098 17.678C92.9102 17.8053 92.8854 17.9315 92.8368 18.0491C92.7883 18.1668 92.7169 18.2737 92.6268 18.3637C92.5368 18.4537 92.4298 18.525 92.312 18.5734C92.1943 18.6219 92.0681 18.6465 91.9408 18.646H90.9028C90.7755 18.6465 90.6493 18.6219 90.5316 18.5734C90.4139 18.525 90.3069 18.4537 90.2168 18.3637C90.1267 18.2737 90.0554 18.1668 90.0068 18.0491C89.9582 17.9315 89.9334 17.8053 89.9338 17.678L89.9518 12.625C89.9518 10.959 89.0558 9.65001 87.2998 9.65001C85.5438 9.65001 84.4698 11.102 84.4508 12.75L84.4328 17.678C84.4328 18.197 84.0028 18.628 83.4648 18.628H82.4448C81.9248 18.628 81.4938 18.197 81.4938 17.66L81.5298 8.03601C81.5298 7.51701 81.9608 7.08601 82.4978 7.08601H83.3758C83.9138 7.08601 84.2908 7.53301 84.3258 8.03601L84.3628 8.51901V8.52101ZM42.6828 6.69301C39.1888 6.67501 36.7168 9.20101 36.6988 12.677C36.6808 16.19 39.1188 18.68 42.6468 18.698C46.1768 18.716 48.6498 16.244 48.6668 12.714C48.6858 9.25501 46.1598 6.71101 42.6828 6.69301ZM71.6928 13.878C71.9448 15.49 73.4858 16.154 74.9918 16.172C75.7098 16.172 76.5328 15.994 77.1768 15.689C77.2848 15.635 77.3918 15.599 77.4998 15.529C77.8588 15.332 78.1818 15.206 78.5038 15.529C78.6828 15.707 78.8448 15.887 79.0238 16.048C79.1838 16.208 79.3458 16.37 79.4888 16.567C79.9718 17.177 79.6328 17.319 79.0758 17.696C77.8928 18.484 76.3508 18.879 74.9358 18.879C71.1358 18.861 68.6288 16.549 68.6288 12.714C68.6468 9.09401 71.1548 6.69301 74.7758 6.71101C78.4658 6.72901 80.5628 8.89601 80.6178 12.589C80.6358 13.594 80.6718 13.914 79.6308 13.914L71.6928 13.878ZM42.6828 9.39901C44.4928 9.39901 45.6948 10.977 45.6948 12.714C45.6948 14.45 44.5648 15.975 42.6668 15.975C40.7678 15.975 39.6558 14.505 39.6558 12.695C39.6738 10.903 40.8028 9.39801 42.6828 9.39801V9.39901ZM71.7658 11.389L77.7148 11.406C77.4998 9.91901 76.2628 9.32701 74.8478 9.32701C73.4318 9.32701 72.2128 9.99201 71.7658 11.389Z" fill="black"/>
</svg>
