<svg width="125" height="27" viewBox="0 0 125 27" fill="none" xmlns="http://www.w3.org/2000/svg">
<path d="M8.22989 4.01099C9.13189 4.91099 9.47589 6.22899 9.13189 7.45499C10.2414 6.7877 11.5121 6.43605 12.8069 6.43799H12.8339C13.7755 6.44103 14.7072 6.63006 15.5756 6.99421C16.4439 7.35837 17.2318 7.89048 17.8939 8.55999C18.1508 8.83728 18.4609 9.06003 18.8056 9.21498C19.1504 9.36992 19.5229 9.4539 19.9008 9.46189C20.2787 9.46989 20.6543 9.40175 21.0054 9.26152C21.3564 9.1213 21.6756 8.91186 21.944 8.64568C22.2124 8.37951 22.4245 8.06204 22.5676 7.71218C22.7107 7.36233 22.782 6.98725 22.7771 6.60928C22.7723 6.23131 22.6914 5.85819 22.5393 5.51213C22.3872 5.16608 22.167 4.85417 21.8919 4.59499C20.7087 3.3991 19.3007 2.44896 17.7489 1.79921C16.1971 1.14947 14.5322 0.812939 12.8499 0.808988H12.8009C10.2574 0.803661 7.77056 1.56016 5.66089 2.98099H5.73989C6.67389 2.97999 7.56989 3.35099 8.22989 4.01299V4.01099Z" fill="#1773EB"/>
<path d="M19.8417 17.881C19.0997 17.881 18.3847 18.175 17.8587 18.697C16.5175 20.0319 14.702 20.7809 12.8097 20.78H12.7827C11.4853 20.7784 10.2132 20.4211 9.1047 19.747C9.25018 20.2702 9.27263 20.8199 9.17032 21.3532C9.068 21.8865 8.84368 22.3889 8.51491 22.8211C8.18614 23.2533 7.76183 23.6036 7.27518 23.8445C6.78853 24.0855 6.25273 24.2105 5.7097 24.21H5.6167C7.72365 25.6455 10.2132 26.4151 12.7627 26.419H12.8117C14.485 26.4216 16.1425 26.0946 17.6895 25.4567C19.2365 24.8188 20.6426 23.8824 21.8277 22.701C22.224 22.3079 22.4945 21.806 22.6051 21.2589C22.7156 20.7118 22.6612 20.1442 22.4486 19.6282C22.236 19.1121 21.875 18.6708 21.4112 18.3602C20.9474 18.0497 20.4018 17.8839 19.8437 17.884V17.881H19.8417Z" fill="#E44F20"/>
<path d="M3.2158 18.196C3.54179 17.8677 3.9298 17.6075 4.35727 17.4305C4.78474 17.2535 5.24314 17.1632 5.7058 17.165C6.0288 17.165 6.3488 17.208 6.6598 17.295C5.98818 16.1784 5.63449 14.8995 5.63696 13.5966C5.63943 12.2936 5.99796 11.016 6.6738 9.90201C6.15069 10.0459 5.6014 10.067 5.0688 9.9636C4.5362 9.86023 4.03467 9.63522 3.60335 9.30612C3.17203 8.97701 2.82257 8.55271 2.58223 8.0663C2.34189 7.5799 2.21717 7.04455 2.2178 6.50201V6.40601C0.778564 8.52131 0.00609617 11.0193 3.59333e-05 13.5778C-0.00602431 16.1363 0.754601 18.6379 2.1838 20.76V20.686C2.18216 20.2233 2.27255 19.7648 2.44972 19.3374C2.62689 18.9099 2.8873 18.5219 3.2158 18.196Z" fill="#FFDA00"/>
<path d="M5.7397 3.60498C4.9397 3.60498 4.3787 3.93698 3.6987 4.61698C3.0517 5.26198 2.8477 5.82898 2.8457 6.50098C2.8461 7.07327 3.01616 7.6326 3.3344 8.10826C3.65264 8.58391 4.10476 8.95453 4.6336 9.17326C5.16245 9.39199 5.74427 9.44902 6.30552 9.33713C6.86677 9.22524 7.38224 8.94945 7.78678 8.54464C8.19131 8.13983 8.46674 7.62416 8.57824 7.06284C8.68975 6.50151 8.63232 5.91973 8.41322 5.39103C8.19412 4.86234 7.82319 4.41048 7.34732 4.09257C6.87144 3.77466 6.312 3.60498 5.7397 3.60498Z" fill="#1773EB"/>
<path d="M2.80371 20.69C2.80371 21.489 3.13571 22.051 3.81371 22.73C4.46171 23.377 5.02571 23.582 5.69771 23.584C6.46286 23.5816 7.19572 23.2753 7.73508 22.7326C8.27443 22.1899 8.5761 21.4551 8.57371 20.69C8.57132 19.9248 8.26508 19.192 7.72235 18.6526C7.17962 18.1133 6.44486 17.8116 5.67971 17.814C4.91612 17.8164 4.18462 18.1214 3.64552 18.6622C3.10643 19.2029 2.80371 19.9354 2.80371 20.699V20.69Z" fill="#E44F20"/>
<path fill-rule="evenodd" clip-rule="evenodd" d="M34.1008 16.123C34.9068 15.513 35.0158 15.854 35.6948 16.536C36.0358 16.876 36.9678 17.468 36.3588 17.969C35.0858 19.008 33.9388 19.475 32.3088 19.475C28.6358 19.457 26.0378 16.715 26.2518 13.077C26.3418 11.447 26.9858 9.90597 28.2588 8.84897C29.4238 7.86297 30.8758 7.43297 32.3988 7.46897C33.1688 7.48697 33.8508 7.59597 34.5668 7.89997C35.0318 8.07897 35.4808 8.29497 35.8738 8.59997C36.6798 9.22797 36.3038 9.58597 35.6768 10.212C35.5328 10.356 35.3908 10.499 35.2638 10.643C34.9418 10.966 34.7268 11.198 34.2958 10.893C33.4718 10.32 32.4318 10.016 31.4468 10.266C28.2748 11.072 28.4198 16.718 32.3068 16.736C32.9168 16.754 33.5978 16.503 34.0998 16.126L34.1008 16.123ZM122.262 19.545C122.135 19.5454 122.009 19.5206 121.891 19.4721C121.773 19.4236 121.666 19.3523 121.576 19.2623C121.486 19.1724 121.415 19.0655 121.367 18.9479C121.318 18.8303 121.293 18.7042 121.294 18.577L121.348 6.06797C121.348 5.53097 121.779 5.09997 122.316 5.09997H123.355C123.892 5.09997 124.323 5.53097 124.323 6.06797L124.269 18.577C124.269 18.7042 124.244 18.8303 124.196 18.9479C124.147 19.0655 124.076 19.1724 123.986 19.2623C123.896 19.3523 123.789 19.4236 123.672 19.4721C123.554 19.5206 123.428 19.5454 123.301 19.545H122.262ZM116.815 18.094C115.686 19.15 114.611 19.705 113.015 19.705C109.79 19.688 108.25 17.017 108.25 14.025L108.268 8.93697C108.268 8.39997 108.699 7.96897 109.236 7.96897H110.275C110.812 7.96897 111.243 8.39897 111.243 8.93697L111.225 14.026C111.225 15.692 112.121 17.001 113.877 17.001C115.634 17.001 116.708 15.531 116.726 13.883V12.073C116.708 12.001 116.708 11.929 116.708 11.858L116.726 8.97297C116.726 8.43597 117.157 8.00497 117.695 8.00497H118.733C119.271 8.00497 119.702 8.43497 119.702 8.97297L119.665 18.579C119.662 18.8332 119.559 19.0761 119.377 19.2542C119.196 19.4323 118.951 19.5311 118.697 19.529H117.819C117.282 19.529 116.905 19.082 116.869 18.579L116.815 18.094ZM104.451 8.00397H106.458C106.995 8.00397 107.408 8.45097 107.408 8.98997V9.65397C107.408 10.174 106.979 10.622 106.439 10.622H104.433L104.397 18.525C104.397 18.6523 104.372 18.7784 104.324 18.8961C104.275 19.0138 104.204 19.1207 104.114 19.2107C104.024 19.3007 103.917 19.3719 103.799 19.4204C103.681 19.4688 103.555 19.4935 103.428 19.493H102.39C102.262 19.4935 102.136 19.4688 102.019 19.4204C101.901 19.3719 101.794 19.3007 101.704 19.2107C101.614 19.1207 101.542 19.0138 101.494 18.8961C101.445 18.7784 101.42 18.6523 101.421 18.525L101.457 7.59497C101.457 5.21097 102.819 3.32997 105.257 3.11497C105.329 3.11497 105.383 3.09797 105.453 3.09797C105.596 3.07997 105.74 3.09797 105.882 3.09797H106.815C107.352 3.09797 107.765 3.54497 107.765 4.08397V4.69397C107.765 5.21297 107.334 5.66197 106.796 5.66197H106.045C104.898 5.66197 104.415 6.53997 104.397 7.61497L104.451 8.00897V8.00397ZM97.2468 7.96797H99.4508C99.9698 7.96797 100.401 8.39797 100.401 8.93597V9.59997C100.401 10.12 99.9698 10.55 99.4328 10.55H97.2288L97.2108 15.388C97.2108 16.32 97.6578 16.858 98.5898 16.858H99.0378C99.5568 16.858 99.9878 17.288 99.9878 17.826V18.489C99.9852 18.7432 99.8818 18.9861 99.7003 19.1642C99.5188 19.3423 99.2741 19.4411 99.0198 19.439H98.1778C98.0168 19.439 97.8728 19.439 97.7118 19.421C95.3288 19.261 94.2718 17.719 94.2718 15.39C94.2898 12.254 94.2898 9.13597 94.3078 5.99997C94.3078 5.48097 94.7388 5.04997 95.2758 5.04997H96.2958C96.8158 5.04997 97.2468 5.48097 97.2468 6.01897V7.97197V7.96797ZM65.3698 7.84197H67.5728C68.0928 7.84197 68.5228 8.27197 68.5228 8.80997V9.47397C68.5228 9.99297 68.0928 10.424 67.5548 10.424H65.3508V15.262C65.3508 16.194 65.7988 16.732 66.7308 16.732H67.1778C67.6978 16.732 68.1278 17.162 68.1278 17.699V18.363C68.1278 18.883 67.6978 19.313 67.1598 19.313H66.4968C63.8978 19.295 62.3928 18.184 62.3928 15.263C62.4108 12.128 62.4108 9.00997 62.4288 5.87397C62.4288 5.35497 62.8588 4.92397 63.3968 4.92397H64.4168C64.9368 4.92397 65.3668 5.35497 65.3668 5.89297V7.84497L65.3698 7.84197ZM52.4308 9.20397C53.4878 8.21797 54.6338 7.59197 56.1218 7.59197C59.3478 7.60997 61.0138 10.244 60.9958 13.272L60.9778 18.36C60.9778 18.898 60.5468 19.329 60.0098 19.329H58.9708C58.8435 19.3294 58.7174 19.3046 58.5997 19.256C58.482 19.2074 58.3751 19.136 58.2851 19.046C58.1951 18.9559 58.1238 18.8489 58.0754 18.7312C58.027 18.6134 58.0023 18.4873 58.0028 18.36L58.0208 13.308C58.0208 11.642 57.1248 10.333 55.3678 10.333C53.6118 10.333 52.5378 11.784 52.5188 13.433L52.5008 18.36C52.5008 18.88 52.0708 19.31 51.5328 19.31H50.5128C49.9928 19.31 49.5628 18.88 49.5628 18.342C49.5798 15.279 49.5798 12.196 49.5978 9.13197V8.71797C49.5978 8.19797 50.0288 7.76797 50.5668 7.76797H51.4448C51.9818 7.76797 52.3588 8.21497 52.3948 8.71797L52.4308 9.20097V9.20297V9.20397ZM84.3628 9.32997C85.4188 8.34397 86.5658 7.71797 88.0528 7.71797C91.2798 7.73597 92.9458 10.371 92.9278 13.398L92.9098 18.487C92.9102 18.6143 92.8854 18.7404 92.8368 18.8581C92.7883 18.9758 92.7169 19.0827 92.6268 19.1727C92.5368 19.2627 92.4298 19.3339 92.312 19.3824C92.1943 19.4308 92.0681 19.4555 91.9408 19.455H90.9028C90.7755 19.4555 90.6493 19.4308 90.5316 19.3824C90.4139 19.3339 90.3069 19.2627 90.2168 19.1727C90.1267 19.0827 90.0554 18.9758 90.0068 18.8581C89.9582 18.7404 89.9334 18.6143 89.9338 18.487L89.9518 13.434C89.9518 11.768 89.0558 10.459 87.2998 10.459C85.5438 10.459 84.4698 11.911 84.4508 13.559L84.4328 18.487C84.4328 19.006 84.0028 19.437 83.4648 19.437H82.4448C81.9248 19.437 81.4938 19.006 81.4938 18.469L81.5298 8.84497C81.5298 8.32597 81.9608 7.89497 82.4978 7.89497H83.3758C83.9138 7.89497 84.2908 8.34197 84.3258 8.84497L84.3628 9.32797V9.32997ZM42.6828 7.50197C39.1888 7.48397 36.7168 10.01 36.6988 13.486C36.6808 16.999 39.1188 19.489 42.6468 19.507C46.1768 19.525 48.6498 17.053 48.6668 13.523C48.6858 10.064 46.1598 7.51997 42.6828 7.50197ZM71.6928 14.687C71.9448 16.299 73.4858 16.963 74.9918 16.981C75.7098 16.981 76.5328 16.803 77.1768 16.498C77.2848 16.444 77.3918 16.408 77.4998 16.338C77.8588 16.141 78.1818 16.015 78.5038 16.338C78.6828 16.516 78.8448 16.696 79.0238 16.857C79.1838 17.017 79.3458 17.179 79.4888 17.376C79.9718 17.986 79.6328 18.128 79.0758 18.505C77.8928 19.293 76.3508 19.688 74.9358 19.688C71.1358 19.67 68.6288 17.358 68.6288 13.523C68.6468 9.90297 71.1548 7.50197 74.7758 7.51997C78.4658 7.53797 80.5628 9.70497 80.6178 13.398C80.6358 14.403 80.6718 14.723 79.6308 14.723L71.6928 14.687ZM42.6828 10.208C44.4928 10.208 45.6948 11.786 45.6948 13.523C45.6948 15.259 44.5648 16.784 42.6668 16.784C40.7678 16.784 39.6558 15.314 39.6558 13.504C39.6738 11.712 40.8028 10.207 42.6828 10.207V10.208ZM71.7658 12.198L77.7148 12.215C77.4998 10.728 76.2628 10.136 74.8478 10.136C73.4318 10.136 72.2128 10.801 71.7658 12.198Z" fill="white"/>
</svg>
