<svg width="128" height="128" viewBox="0 0 128 128" fill="none" xmlns="http://www.w3.org/2000/svg">
<path d="M43.2403 16.798C47.6814 21.2293 49.3751 27.7186 47.6814 33.755C53.1442 30.4695 59.4007 28.7381 65.7758 28.7477H65.9087C70.5448 28.7626 75.1322 29.6933 79.4078 31.4863C83.683 33.2793 87.5624 35.8992 90.8223 39.1956C92.0872 40.5609 93.614 41.6576 95.3112 42.4205C97.0088 43.1834 98.8429 43.5969 100.704 43.6362C102.564 43.6756 104.413 43.3401 106.142 42.6497C107.87 41.9593 109.442 40.9281 110.764 39.6175C112.085 38.307 113.129 36.7439 113.834 35.0213C114.538 33.2988 114.89 31.452 114.865 29.591C114.842 27.73 114.443 25.8929 113.695 24.1891C112.946 22.4852 111.861 20.9495 110.507 19.6734C104.681 13.7853 97.7489 9.10714 90.1084 5.90801C82.4679 2.70893 74.2705 1.05197 65.9875 1.03252H65.7462C53.223 1.00629 40.9787 4.73101 30.5915 11.7267H30.9804C35.5791 11.7217 39.9907 13.5484 43.2403 16.8078V16.798Z" fill="#1773EB" style="fill:#1773EB;fill:color(display-p3 0.0920 0.4490 0.9200);fill-opacity:1;"/>
<path d="M100.413 85.0889C96.7592 85.0889 93.2388 86.5364 90.649 89.1066C84.0454 95.6791 75.1066 99.3669 65.7896 99.3625H65.6566C59.2687 99.3546 53.0054 97.5954 47.5475 94.2764C48.2638 96.8524 48.3744 99.559 47.8706 102.185C47.3668 104.811 46.2624 107.284 44.6436 109.412C43.0249 111.54 40.9357 113.265 38.5396 114.451C36.1436 115.638 33.5055 116.253 30.8318 116.251H30.3739C40.7477 123.318 53.0054 127.108 65.5582 127.127H65.7994C74.0381 127.14 82.1991 125.53 89.8159 122.389C97.4328 119.248 104.356 114.638 110.191 108.821C112.142 106.885 113.474 104.414 114.019 101.72C114.563 99.0267 114.295 96.2321 113.248 93.6915C112.201 91.1504 110.424 88.9776 108.14 87.4483C105.857 85.9195 103.17 85.1032 100.422 85.1037V85.0889H100.413Z" fill="#E44F20" style="fill:#E44F20;fill:color(display-p3 0.8941 0.3098 0.1255);fill-opacity:1;"/>
<path d="M18.5527 86.6398C20.1578 85.0234 22.0682 83.7422 24.1729 82.8708C26.2776 81.9993 28.5346 81.5547 30.8126 81.5635C32.4029 81.5635 33.9785 81.7752 35.5097 82.2036C32.2029 76.7059 30.4615 70.409 30.4736 63.994C30.4858 57.5785 32.2511 51.2881 35.5787 45.8032C33.0031 46.5117 30.2986 46.6156 27.6762 46.1065C25.0539 45.5975 22.5846 44.4897 20.4609 42.8693C18.3372 41.2489 16.6166 39.1598 15.4333 36.7649C14.2499 34.37 13.6359 31.7341 13.639 29.0629V28.5902C6.55269 39.0052 2.74935 51.3044 2.71951 63.9015C2.68967 76.4986 6.43471 88.8155 13.4716 99.264V98.8996C13.4635 96.6215 13.9085 94.364 14.7808 92.2596C15.6532 90.1548 16.9353 88.2444 18.5527 86.6398Z" fill="#FFDA00" style="fill:#FFDA00;fill:color(display-p3 1.0000 0.8549 0.0000);fill-opacity:1;"/>
<path d="M30.9795 14.799C27.0406 14.799 24.2784 16.4336 20.9304 19.7817C17.7448 22.9574 16.7404 25.7491 16.7305 29.0578C16.7325 31.8756 17.5698 34.6295 19.1367 36.9715C20.7036 39.3134 22.9297 41.1382 25.5335 42.2151C28.1373 43.2921 31.002 43.5729 33.7654 43.022C36.5288 42.4711 39.0668 41.1132 41.0586 39.12C43.0503 37.1269 44.4065 34.5879 44.9554 31.8242C45.5045 29.0604 45.2217 26.196 44.1429 23.5928C43.0642 20.9898 41.2378 18.765 38.8948 17.1997C36.5518 15.6344 33.7973 14.799 30.9795 14.799Z" fill="#1773EB" style="fill:#1773EB;fill:color(display-p3 0.0920 0.4490 0.9200);fill-opacity:1;"/>
<path d="M16.5238 98.9194C16.5238 102.853 18.1584 105.62 21.4966 108.964C24.6872 112.149 27.4641 113.158 30.7728 113.168C34.5401 113.157 38.1484 111.648 40.804 108.976C43.4596 106.304 44.9449 102.686 44.9331 98.9194C44.9214 95.1518 43.4136 91.5437 40.7413 88.8879C38.0691 86.2326 34.4515 84.7472 30.6841 84.759C26.9245 84.7708 23.3229 86.2725 20.6685 88.9352C18.0143 91.5974 16.5238 95.204 16.5238 98.9637V98.9194Z" fill="#E44F20" style="fill:#E44F20;fill:color(display-p3 0.8941 0.3098 0.1255);fill-opacity:1;"/>
<path d="M81.9206 60.4728C83.9206 61.6275 83.9206 64.5143 81.9206 65.669L57.2897 79.8896C55.2897 81.0443 52.7897 79.6009 52.7897 77.2915L52.7897 48.8502C52.7897 46.5408 55.2897 45.0974 57.2897 46.2521L81.9206 60.4728Z" fill="#838383" style="fill:#838383;fill:color(display-p3 0.5153 0.5153 0.5153);fill-opacity:1;"/>
</svg>
